<svg width="18" height="18" viewBox="0 0 18 18" fill="none" xmlns="http://www.w3.org/2000/svg">
<path d="M15.2132 3.95389H7.18133C6.96051 3.29805 6.34018 2.82422 5.61083 2.82422C4.88148 2.82422 4.26114 3.29805 4.04033 3.95389H2.78662C2.49539 3.95389 2.25928 4.19 2.25928 4.48124C2.25928 4.77247 2.49539 5.00858 2.78662 5.00858H4.04036C4.26118 5.66442 4.88151 6.13826 5.61086 6.13826C6.34021 6.13826 6.96055 5.66442 7.18136 5.00858H15.2132C15.5044 5.00858 15.7405 4.77247 15.7405 4.48124C15.7405 4.19 15.5044 3.95389 15.2132 3.95389ZM5.61083 5.08357C5.27871 5.08357 5.0085 4.81336 5.0085 4.48124C5.0085 4.14912 5.27871 3.87891 5.61083 3.87891C5.94295 3.87891 6.21316 4.14912 6.21316 4.48124C6.21316 4.81336 5.94295 5.08357 5.61083 5.08357Z" fill="#A18A68"/>
<path d="M15.2132 8.47269H13.9594C13.7386 7.81685 13.1182 7.34302 12.3889 7.34302C11.6596 7.34302 11.0393 7.81685 10.8185 8.47269H2.78662C2.49539 8.47269 2.25928 8.7088 2.25928 9.00004C2.25928 9.29127 2.49539 9.52738 2.78662 9.52738H10.8185C11.0393 10.1832 11.6596 10.6571 12.389 10.6571C13.1183 10.6571 13.7386 10.1832 13.9595 9.52738H15.2132C15.5044 9.52738 15.7405 9.29127 15.7405 9.00004C15.7405 8.7088 15.5044 8.47269 15.2132 8.47269ZM12.389 9.60237C12.0568 9.60237 11.7866 9.33216 11.7866 9.00004C11.7866 8.66792 12.0568 8.39771 12.389 8.39771C12.7211 8.39771 12.9913 8.66792 12.9913 9.00004C12.9913 9.33216 12.7211 9.60237 12.389 9.60237Z" fill="#A18A68"/>
<path d="M15.2132 12.9914H9.44071C9.2199 12.3355 8.59957 11.8617 7.87021 11.8617C7.14086 11.8617 6.52053 12.3355 6.29972 12.9914H2.78662C2.49539 12.9914 2.25928 13.2275 2.25928 13.5187C2.25928 13.8099 2.49539 14.0461 2.78662 14.0461H6.29972C6.52053 14.7019 7.14086 15.1757 7.87021 15.1757C8.59957 15.1757 9.2199 14.7019 9.44071 14.0461H15.2132C15.5044 14.0461 15.7405 13.8099 15.7405 13.5187C15.7405 13.2275 15.5044 12.9914 15.2132 12.9914ZM7.87021 14.1211C7.53809 14.1211 7.26788 13.8509 7.26788 13.5187C7.26788 13.1866 7.53809 12.9164 7.87021 12.9164C8.20234 12.9164 8.47255 13.1866 8.47255 13.5187C8.47255 13.8508 8.20234 14.1211 7.87021 14.1211Z" fill="#A18A68"/>
</svg>
