<svg width="60" height="56" viewBox="0 0 60 56" fill="none" xmlns="http://www.w3.org/2000/svg">
<path d="M55.3479 29.1019V1.77964C55.3479 0.804893 54.5576 0.0146484 53.5829 0.0146484H6.29505C5.3203 0.0146484 4.53006 0.804893 4.53006 1.77964V31.28C3.67863 31.404 2.84626 31.7346 2.10991 32.2812C-0.211409 33.9273 -0.760439 37.6109 1.18399 39.8827L9.13386 49.5204C14.0549 55.2798 19.2824 55.9854 27.0538 55.9854C33.7228 55.9854 36.7043 56.0148 42.5164 54.6905L48.1759 53.3369C49.0936 54.6184 50.5504 55.4485 52.1882 55.4485H54.9762C57.7463 55.4485 59.9999 53.0744 59.9999 50.1561V34.3784C60 31.592 57.9449 29.3031 55.3479 29.1019ZM47.4146 32.7326L45.0629 31.5382C41.1963 29.5865 36.7258 29.5142 32.7981 31.3403C31.7265 31.7618 29.3893 33.1759 28.177 33.1286H20.0167C17.3099 33.1286 15.1076 35.3307 15.1076 38.0376V39.3247C15.0925 39.3087 15.0766 39.2936 15.0616 39.2773L9.23423 32.9519C8.88158 32.5692 8.4854 32.2489 8.06016 31.9919V14.481H22.504V20.951C22.504 21.9257 23.2943 22.7159 24.269 22.7159H35.4062C36.3809 22.7159 37.1712 21.9257 37.1712 20.951V14.481H51.818V29.1018C49.7558 29.2611 48.0362 30.7364 47.4146 32.7326ZM26.0339 14.481H33.6411V19.186H26.0339V14.481ZM51.8179 10.951H37.1712V3.54463H51.818V10.951H51.8179ZM33.6412 3.54463V10.9511H26.034V3.54463H33.6412ZM22.5039 3.54463V10.9511H8.06004V3.54463H22.5039ZM41.6972 51.2568C36.3281 52.4865 33.0945 52.4367 27.1171 52.4367C19.8218 52.4367 16.2969 52.3188 11.8571 47.274L3.90725 37.6363C2.52444 35.8357 5.02908 33.7101 6.63804 35.3435L12.4655 41.669C14.0056 43.2941 15.9437 44.1885 18.3324 44.2411H34.4889C35.4636 44.2411 36.2539 43.4508 36.2539 42.4761C36.2539 41.5013 35.4636 40.7111 34.4889 40.7111H18.6375V38.0373C18.6375 37.277 19.2561 36.6583 20.0165 36.6583H28.1769C30.0153 36.79 32.6688 35.2549 34.2863 34.541C37.2279 33.1733 40.5762 33.2274 43.4683 34.6872L47.1647 36.5646V49.9489L41.6972 51.2568ZM56.4701 50.156C56.4701 51.1278 55.7999 51.9184 54.9763 51.9184H52.1883C51.3646 51.9184 50.6947 51.1278 50.6947 50.156V34.3784C50.6947 33.4066 51.3648 32.6159 52.1883 32.6159H54.9763C55.7999 32.6159 56.4701 33.4065 56.4701 34.3784V50.156Z" fill="#242424"/>
</svg>
