<svg width="130" height="128" viewBox="0 0 130 128" fill="none" xmlns="http://www.w3.org/2000/svg">
<circle cx="47.0547" cy="47.0547" r="47.0547" transform="matrix(-1 0 0 1 112.195 17)" fill="#EAF9FF"/>
<circle cx="36.9716" cy="36.9716" r="36.9716" transform="matrix(-1 0 0 1 102.112 27.0832)" fill="#C7DDF1"/>
<path d="M89.3179 40.1312C89.5366 39.9125 89.8913 39.9125 90.1101 40.1312L92.9847 43.0059C92.9947 43.0158 93.01 43.0421 93.0274 43.0758C93.1118 43.2387 93.1488 43.4248 93.1488 43.6083V110.903H36.5711V43.8884V43.6083C36.5711 43.3282 36.7007 43.0414 36.7361 43.0059L39.6108 40.1312C39.8296 39.9125 40.1843 39.9125 40.403 40.1312L43.1136 42.8418L45.8242 40.1312C46.0429 39.9125 46.3976 39.9125 46.6164 40.1312L49.327 42.8418L52.0376 40.1312C52.2563 39.9125 52.611 39.9125 52.8298 40.1312L55.5404 42.8418L58.251 40.1312C58.4697 39.9125 58.8244 39.9125 59.0432 40.1312L61.7537 42.8418L64.4643 40.1312C64.6831 39.9125 65.0378 39.9125 65.2565 40.1312L67.9671 42.8418L70.6777 40.1312C70.8965 39.9125 71.2512 39.9125 71.4699 40.1312L74.1805 42.8418L76.8911 40.1312C77.1099 39.9125 77.4646 39.9125 77.6833 40.1312L80.3939 42.8418L83.1045 40.1312C83.3232 39.9125 83.6779 39.9125 83.8967 40.1312L86.6073 42.8418L89.3179 40.1312Z" fill="#E3E7F7" stroke="#0C2B42" stroke-width="1.67686"/>
<path fill-rule="evenodd" clip-rule="evenodd" d="M57.2976 72.4573C56.0601 72.4573 55.0569 71.4541 55.0569 70.2166C55.0569 68.9791 56.0601 67.9759 57.2976 67.9759C58.5351 67.9759 59.5383 68.9791 59.5383 70.2166C59.5383 71.4541 58.5351 72.4573 57.2976 72.4573ZM72.4223 72.4573C71.1848 72.4573 70.1816 71.4541 70.1816 70.2166C70.1816 68.9791 71.1848 67.9759 72.4223 67.9759C73.6598 67.9759 74.663 68.9791 74.663 70.2166C74.663 71.4541 73.6598 72.4573 72.4223 72.4573Z" fill="#0C2B42"/>
<path d="M55.6171 84.6098C57.6363 81.6686 61.0228 79.7396 64.86 79.7396C68.6971 79.7396 72.0837 81.6686 74.1028 84.6098" stroke="#0C2B42" stroke-width="2.79476" stroke-linecap="round"/>
<circle cx="1.68053" cy="1.68053" r="1.68053" transform="matrix(-1 0 0 1 84.7462 29.884)" stroke="#0C2B42" stroke-width="1.67686"/>
<circle cx="1.12035" cy="1.12035" r="1.12035" transform="matrix(-1 0 0 1 21.4464 83.1007)" stroke="#0C2B42" stroke-width="1.67686"/>
<path d="M83.0657 50.0503H57.8578M83.0657 55.9322H67.9409" stroke="#ABC0DC" stroke-width="1.67686" stroke-linecap="round"/>
<path d="M87.5471 103.827H42.1729M87.5471 98.2254H60.3226" stroke="#ABC0DC" stroke-width="1.67686" stroke-linecap="round"/>
<circle cx="2.52079" cy="2.52079" r="2.52079" transform="matrix(-1 0 0 1 110.514 73.0175)" stroke="#0C2B42" stroke-width="1.67686"/>
<path d="M129 111.109H0.999999" stroke="#6E7191" stroke-width="1.67686" stroke-linecap="round"/>
<path d="M30.9501 42.7681H25.3676M34.8906 37.9353V33.2451" stroke="#6E7191" stroke-width="1.67686" stroke-linecap="round"/>
<path d="M31.2784 38.9286L27.5652 35.2153" stroke="#6E7191" stroke-width="1.67686" stroke-linecap="round"/>
</svg>
